Coordinates
version=1
nRows=37
nColumns=33
inDegrees=yes

Units are S.I. units (second, meters, Newtons, ...)
Angles are in degrees.

endheader
time	ground_thorax_rot_x	ground_thorax_rot_y	ground_thorax_rot_z	ground_thorax_tx	ground_thorax_ty	ground_thorax_tz	clav_prot_r	clav_elev_r	scapula_abduction_r	scapula_elevation_r	scapula_upward_rot_r	scapula_winging_r	shoulder_elv_r	plane_of_elev_r	axial_rot_r	elbow_flexion_r	pro_sup_r	wrist_flex_r	wrist_dev_r	clav_prot_l	clav_elev_l	scapula_abduction_l	scapula_elevation_l	scapula_upward_rot_l	scapula_winging_l	shoulder_elv_l	plane_of_elev_l	axial_rot_l	elbow_flexion_l	pro_sup_l	wrist_flex_l	wrist_dev_l	
0.0100	3.082538	-9.873606	9.344204	-0.117642	1.032743	0.011827	1.994267	-8.454017	3.668593	-1.784577	0.452766	0.515386	31.996102	9.944693	18.356800	53.015716	43.296682	7.871532	18.442856	1.092603	-16.362893	2.663960	2.561371	-17.982371	-7.556868	50.967724	4.096017	-1.506715	58.796941	45.337068	13.671738	-9.492298	
0.0200	3.081821	-9.871425	9.346132	-0.117677	1.032703	0.011854	1.994307	-8.454226	3.668832	-1.784871	0.452953	0.515581	31.995966	9.945672	18.356745	53.016005	43.296341	7.871258	18.442846	1.092567	-16.363103	2.663739	2.561596	-17.981990	-7.556679	50.968196	4.096478	-1.506526	58.797072	45.337317	13.671464	-9.492436	
0.0300	3.080679	-9.867587	9.349645	-0.117723	1.032650	0.011886	1.994372	-8.454619	3.669241	-1.785402	0.453306	0.515775	31.995703	9.947408	18.356654	53.016506	43.295792	7.870821	18.442824	1.092503	-16.363587	2.663346	2.561797	-17.981044	-7.556501	50.969151	4.097335	-1.506190	58.797307	45.337708	13.671017	-9.492653	
0.0400	3.079166	-9.862450	9.354447	-0.117773	1.032594	0.011916	1.994491	-8.455149	3.669760	-1.786092	0.453815	0.515947	31.995338	9.949726	18.356539	53.017151	43.295096	7.870264	18.442794	1.092547	-16.363866	2.662868	2.562440	-17.979808	-7.556317	50.970516	4.098526	-1.505750	58.797621	45.338198	13.670444	-9.492924	
0.0500	3.077211	-9.856504	9.360098	-0.117824	1.032538	0.011937	1.994614	-8.455723	3.670308	-1.786802	0.454415	0.516042	31.994940	9.952367	18.356415	53.017831	43.294292	7.869600	18.442766	1.092677	-16.364177	2.662243	2.563277	-17.978362	-7.556174	50.972133	4.099966	-1.505276	58.797974	45.338770	13.669780	-9.493243	
0.0600	3.074785	-9.851092	9.365410	-0.117869	1.032487	0.011944	1.994694	-8.456058	3.670715	-1.787319	0.454977	0.516056	31.994671	9.954698	18.356305	53.018319	43.293513	7.868909	18.442756	1.092937	-16.364561	2.661491	2.564229	-17.977162	-7.556098	50.973566	4.101403	-1.504924	58.798280	45.339341	13.669140	-9.493571	
0.0700	3.071627	-9.846517	9.370198	-0.117906	1.032444	0.011931	1.994685	-8.456073	3.670911	-1.787517	0.455498	0.515938	31.994611	9.956569	18.356210	53.018524	43.292767	7.868173	18.442773	1.093370	-16.365172	2.660534	2.565246	-17.976308	-7.556145	50.974696	4.102838	-1.504756	58.798522	45.339916	13.668532	-9.493915	
0.0800	3.066865	-9.843787	9.373912	-0.117934	1.032413	0.011891	1.994480	-8.455374	3.670699	-1.787123	0.455987	0.515640	31.995039	9.957525	18.356121	53.018171	43.292081	7.867345	18.442839	1.094150	-16.366292	2.659176	2.566444	-17.976254	-7.556397	50.975118	4.104284	-1.504967	58.798661	45.340497	13.667987	-9.494299	
0.0900	3.060555	-9.842639	9.376682	-0.117953	1.032392	0.011826	1.994104	-8.454083	3.670136	-1.786153	0.456466	0.515196	31.995898	9.957695	18.356041	53.017309	43.291428	7.866412	18.442951	1.095258	-16.367944	2.657458	2.567787	-17.976918	-7.556827	50.974894	4.105766	-1.505503	58.798710	45.341101	13.667482	-9.494726	
0.1000	3.052865	-9.842731	9.378679	-0.117966	1.032380	0.011743	1.993609	-8.452291	3.669314	-1.784751	0.456938	0.514683	31.997108	9.957267	18.355967	53.016023	43.290785	7.865375	18.443103	1.096633	-16.370048	2.655457	2.569314	-17.978226	-7.557367	50.974113	4.107301	-1.506283	58.798694	45.341740	13.666993	-9.495196	
0.1100	3.043889	-9.843190	9.380367	-0.117976	1.032373	0.011646	1.993076	-8.450274	3.668381	-1.783086	0.457396	0.514100	31.998493	9.956642	18.355911	53.014435	43.290055	7.864179	18.443292	1.098212	-16.372618	2.653222	2.570985	-17.979937	-7.558024	50.972992	4.108994	-1.507137	58.798655	45.342478	13.666435	-9.495728	
0.1200	3.034082	-9.843978	9.381653	-0.117982	1.032372	0.011539	1.992524	-8.448118	3.667410	-1.781280	0.457810	0.513503	31.999983	9.955867	18.355877	53.012627	43.289275	7.862882	18.443506	1.099900	-16.375451	2.650889	2.572811	-17.981998	-7.558735	50.971590	4.110769	-1.508004	58.798601	45.343280	13.665834	-9.496293	
0.1300	3.024423	-9.845105	9.382150	-0.117985	1.032377	0.011429	1.992071	-8.446101	3.666500	-1.779499	0.458112	0.512960	32.001414	9.954985	18.355881	53.010742	43.288527	7.861619	18.443729	1.101486	-16.378370	2.648741	2.574504	-17.984231	-7.559456	50.969977	4.112408	-1.508748	58.798532	45.344065	13.665250	-9.496828	
0.1400	3.015709	-9.846359	9.382019	-0.117984	1.032385	0.011324	1.991723	-8.444374	3.665777	-1.777975	0.458326	0.512542	32.002680	9.954163	18.355908	53.008984	43.287875	7.860503	18.443936	1.102817	-16.381024	2.646984	2.576068	-17.986412	-7.560112	50.968349	4.113822	-1.509278	58.798485	45.344762	13.664726	-9.497284	
0.1500	3.006445	-9.848147	9.381311	-0.117982	1.032395	0.011212	1.991399	-8.442715	3.665123	-1.776545	0.458612	0.512094	32.004092	9.953337	18.355918	53.007110	43.287240	7.859386	18.444144	1.104101	-16.383915	2.645388	2.577750	-17.988847	-7.560974	50.966376	4.115301	-1.509641	58.798514	45.345454	13.664188	-9.497726	
0.1600	2.996785	-9.850050	9.380519	-0.117980	1.032404	0.011099	1.991062	-8.441113	3.664601	-1.775275	0.459038	0.511667	32.005631	9.952654	18.355900	53.005215	43.286616	7.858281	18.444343	1.105301	-16.386922	2.643968	2.579606	-17.991326	-7.561942	50.964271	4.116902	-1.509826	58.798647	45.346133	13.663631	-9.498151	
0.1700	2.986443	-9.851914	9.379657	-0.117980	1.032412	0.010985	1.990767	-8.439572	3.664196	-1.774102	0.459623	0.511218	32.007321	9.952108	18.355874	53.003231	43.285982	7.857152	18.444543	1.106424	-16.390160	2.642702	2.581621	-17.993845	-7.563058	50.962023	4.118673	-1.509805	58.798895	45.346823	13.663030	-9.498568	
0.1800	2.976422	-9.853045	9.378814	-0.117982	1.032417	0.010878	1.990594	-8.438249	3.664047	-1.773141	0.460218	0.510865	32.008899	9.951785	18.355905	53.001304	43.285376	7.856082	18.444737	1.107298	-16.393210	2.641772	2.583652	-17.996110	-7.564106	50.959971	4.120430	-1.509496	58.799224	45.347482	13.662414	-9.498936	
0.1900	2.964022	-9.853408	9.377931	-0.117985	1.032420	0.010763	1.990510	-8.436787	3.664082	-1.772078	0.460946	0.510373	32.010773	9.951569	18.356033	52.998886	43.284625	7.854767	18.444985	1.108200	-16.396841	2.640877	2.586157	-17.998615	-7.565446	50.957662	4.122649	-1.508840	58.799714	45.348300	13.661611	-9.499355	
0.2000	2.950805	-9.852348	9.377048	-0.117990	1.032421	0.010651	1.990621	-8.435399	3.664427	-1.771066	0.461592	0.509894	32.012600	9.951509	18.356315	52.996189	43.283793	7.853338	18.445274	1.108909	-16.400567	2.640239	2.588807	-18.000914	-7.566802	50.955551	4.125071	-1.507766	58.800314	45.349208	13.660678	-9.499767	
0.2100	2.936258	-9.849585	9.376029	-0.117996	1.032421	0.010544	1.990992	-8.434043	3.665090	-1.770003	0.462069	0.509336	32.014428	9.951505	18.356800	52.992986	43.282826	7.851697	18.445632	1.109445	-16.404456	2.639831	2.591710	-18.003010	-7.568276	50.953668	4.127846	-1.506174	58.801058	45.350270	13.659546	-9.500187	
0.2200	2.921689	-9.845028	9.374783	-0.118002	1.032420	0.010445	1.991648	-8.432830	3.666068	-1.768929	0.462168	0.508781	32.016019	9.951463	18.357498	52.989422	43.281772	7.849935	18.446048	1.109727	-16.408099	2.639706	2.594609	-18.004646	-7.569701	50.952316	4.130760	-1.504121	58.801874	45.351439	13.658275	-9.500578	
0.2300	2.902465	-9.837103	9.372628	-0.118006	1.032422	0.010340	1.992819	-8.431321	3.667621	-1.767327	0.461651	0.507906	32.017879	9.951049	18.358684	52.984082	43.280252	7.847403	18.446689	1.109921	-16.412590	2.639758	2.598402	-18.006217	-7.571635	50.951233	4.134879	-1.500915	58.803036	45.353144	13.656406	-9.501077	
0.2400	2.881327	-9.826671	9.369792	-0.118008	1.032424	0.010235	1.994377	-8.429759	3.669588	-1.765417	0.460540	0.506892	32.019702	9.950348	18.360193	52.977668	43.278445	7.844420	18.447469	1.109956	-16.417275	2.639997	2.602513	-18.007446	-7.573745	50.950676	4.139620	-1.496951	58.804363	45.355183	13.654174	-9.501613	
0.2500	2.858728	-9.814568	9.366531	-0.118009	1.032427	0.010135	1.996180	-8.428165	3.671822	-1.763304	0.459098	0.505733	32.021581	9.949507	18.361863	52.970495	43.276411	7.841092	18.448340	1.109931	-16.422078	2.640317	2.606858	-18.008470	-7.576024	50.950487	4.144819	-1.492482	58.805802	45.357478	13.651677	-9.502181	
0.2600	2.838668	-9.803792	9.363710	-0.118010	1.032428	0.010038	1.997739	-8.426812	3.673822	-1.761500	0.457965	0.504667	32.023353	9.948966	18.363193	52.964142	43.274530	7.838073	18.449090	1.109961	-16.426230	2.640512	2.610613	-18.009371	-7.578091	50.950445	4.149408	-1.488549	58.807034	45.359579	13.649432	-9.502692	
0.2700	2.818781	-9.794777	9.361552	-0.118013	1.032425	0.009935	1.998922	-8.425434	3.675559	-1.760015	0.457653	0.503527	32.025585	9.949006	18.364013	52.958381	43.272666	7.835157	18.449718	1.110286	-16.430396	2.640365	2.614178	-18.010699	-7.580229	50.950034	4.153733	-1.485161	58.808144	45.361614	13.647329	-9.503220	
0.2800	2.802689	-9.789551	9.360565	-0.118018	1.032416	0.009832	1.999411	-8.424271	3.676697	-1.759200	0.458418	0.502562	32.027951	9.949804	18.364048	52.954428	43.271148	7.832896	18.450078	1.110904	-16.433834	2.639830	2.616850	-18.012351	-7.582001	50.949240	4.156918	-1.483060	58.808900	45.363206	13.645783	-9.503676	
0.2900	2.789539	-9.787288	9.360441	-0.118023	1.032404	0.009733	1.999407	-8.423245	3.677361	-1.758887	0.460012	0.501769	32.030399	9.951161	18.363492	52.951896	43.269907	7.831161	18.450232	1.111727	-16.436679	2.639015	2.618881	-18.014298	-7.583398	50.948138	4.159214	-1.481966	58.809411	45.364441	13.644673	-9.504073	
0.3000	2.778097	-9.786839	9.360671	-0.118029	1.032390	0.009632	1.999145	-8.422240	3.677770	-1.758818	0.462039	0.501137	32.032810	9.952793	18.362635	52.950269	43.268841	7.829778	18.450272	1.112647	-16.439221	2.638055	2.620482	-18.016464	-7.584463	50.946827	4.160963	-1.481490	58.809851	45.365441	13.643833	-9.504433	
0.3100	2.764907	-9.785582	9.360452	-0.118033	1.032376	0.009528	1.999053	-8.421051	3.678362	-1.758505	0.463911	0.500474	32.035285	9.954296	18.361930	52.948179	43.267621	7.828186	18.450381	1.113538	-16.442140	2.637144	2.622382	-18.018760	-7.585538	50.945501	4.163106	-1.480710	58.810519	45.366591	13.642812	-9.504835	
0.3200	2.751233	-9.783261	9.359574	-0.118033	1.032366	0.009428	1.999236	-8.419782	3.679130	-1.757939	0.465230	0.499847	32.037444	9.955420	18.361533	52.945727	43.266338	7.826508	18.450573	1.114257	-16.445147	2.636431	2.624375	-18.020835	-7.586534	50.944416	4.165504	-1.479580	58.811421	45.367805	13.641663	-9.505242	
0.3300	2.738125	-9.779833	9.357977	-0.118031	1.032358	0.009340	1.999697	-8.418619	3.680027	-1.757116	0.465840	0.499280	32.039073	9.956102	18.361439	52.943057	43.265042	7.824827	18.450834	1.114725	-16.447918	2.635996	2.626343	-18.022433	-7.587430	50.943797	4.168040	-1.478100	58.812561	45.369031	13.640424	-9.505631	
0.3400	2.724838	-9.775184	9.355607	-0.118025	1.032352	0.009256	2.000438	-8.417497	3.681068	-1.756047	0.465821	0.498684	32.040301	9.956438	18.361589	52.940047	43.263647	7.823042	18.451166	1.114991	-16.450621	2.635783	2.628344	-18.023617	-7.588380	50.943612	4.170863	-1.476199	58.814016	45.370343	13.639022	-9.506028	
0.3500	2.708146	-9.767828	9.351652	-0.118016	1.032350	0.009171	2.001602	-8.416210	3.682528	-1.754449	0.465025	0.497842	32.041369	9.956520	18.361937	52.935876	43.261722	7.820633	18.451651	1.115108	-16.453731	2.635814	2.630948	-18.024463	-7.589719	50.944089	4.174837	-1.473253	58.816320	45.372129	13.637018	-9.506551	
0.3600	2.688899	-9.758462	9.346484	-0.118005	1.032350	0.009084	2.003096	-8.414775	3.684276	-1.752495	0.463644	0.496806	32.042327	9.956430	18.362397	52.930836	43.259380	7.817738	18.452246	1.115097	-16.457142	2.636009	2.633998	-18.025040	-7.591354	50.945094	4.179691	-1.469518	58.819283	45.374284	13.634550	-9.507174	
0.3700	2.668013	-9.747766	9.340454	-0.117991	1.032352	0.008997	2.004787	-8.413246	3.686206	-1.750304	0.461853	0.495648	32.043208	9.956232	18.362887	52.925214	43.256735	7.814500	18.452908	1.115022	-16.460695	2.636334	2.637370	-18.025404	-7.593157	50.946513	4.185160	-1.465245	58.822718	45.376705	13.631752	-9.507869	
